<svg id="Layer_1" data-name="Layer 1" xmlns="http://www.w3.org/2000/svg" viewBox="0 0 124 45.91"><defs><style>.cls-1{fill:#fcfcfc;}</style></defs><path class="cls-1" d="M27.19,21.91H26c-.5,5.08-1.2,11.26-10,11.26H12c-2.34,0-2.44-.35-2.44-2V4.73c0-1.69,0-2.39,4.68-2.39h1.65V.85C14,1,9.56,1,7.52,1S1.69,1,0,.85V2.34H1.15c3.83,0,3.93.55,3.93,2.34V30.83c0,1.79-.1,2.34-3.93,2.34H0v1.54H25.85Z"/><path class="cls-1" d="M26.34.8C26.14.2,26,0,25.4,0s-.8.2-1,.8l-8,20.31c-.34.85-.94,2.4-4,2.4v1.24h7.72V23.51c-1.54,0-2.49-.7-2.49-1.7a2.2,2.2,0,0,1,.15-.7l1.69-4.28h9.86l2,5.08a1.69,1.69,0,0,1,.2.6c0,1-1.89,1-2.84,1v1.24h9.81V23.51h-.69c-2.34,0-2.59-.35-2.94-1.35L26.34.8Zm-2,3.53,4.43,11.26H19.92Z"/><path class="cls-1" d="M66.23,1.15H35.91L35,12.3H36.2c.7-8,1.45-9.66,9-9.66a20.89,20.89,0,0,1,2.69.1c1,.2,1,.75,1,1.89V30.78c0,1.69,0,2.39-5.23,2.39h-2v1.54c2-.15,7.07-.15,9.36-.15s7.42,0,9.47.15V33.17h-2c-5.22,0-5.22-.7-5.22-2.39V4.63c0-1,0-1.69.89-1.89A23.37,23.37,0,0,1,57,2.64c7.47,0,8.22,1.64,8.91,9.66h1.25l-1-11.15Z"/><path class="cls-1" d="M92.93,33.12H91.68c-1.24,7.62-2.39,11.25-10.91,11.25H74.2c-2.34,0-2.44-.35-2.44-2V29.13h4.43c4.83,0,5.38,1.6,5.38,5.83h1.25V21.81H81.57c0,4.23-.55,5.78-5.38,5.78H71.76V15.69c0-1.65.1-2,2.44-2h6.38c7.61,0,8.91,2.74,9.71,9.67h1.24L90.14,12.2H62.25v1.49h1.14c3.84,0,3.94.55,3.94,2.35V42c0,1.79-.1,2.34-3.94,2.34H62.25v1.54H90.83Z"/><path class="cls-1" d="M107.91,15.54l6.83-10c1-1.6,2.74-3.19,7.17-3.24V.85H110.06V2.34c2,.05,3.08,1.15,3.08,2.29,0,.5-.1.6-.44,1.15L107,14.14l-6.38-9.56a2,2,0,0,1-.34-.75c0-.59,1.09-1.44,3.18-1.49V.85C101.79,1,98.15,1,96.26,1,94.72,1,91.63,1,89.79.85V2.34h.94c2.74,0,3.69.35,4.64,1.74l9.11,13.8-8.12,12c-.7,1-2.19,3.29-7.17,3.29v1.54H101V33.17c-2.29-.05-3.13-1.4-3.13-2.29a2,2,0,0,1,.49-1.2l7-10.41,7.87,11.85a1.72,1.72,0,0,1,.25.55c0,.6-1.09,1.45-3.23,1.5v1.54c1.74-.15,5.37-.15,7.22-.15,2.09,0,4.38,0,6.47.15V33.17h-1c-2.59,0-3.63-.25-4.68-1.8L107.91,15.54Z"/></svg>